# xmcd
#
# Track frame offsets:
#	150
#	9547
#	22552
#	36385
#	48130
#	59667
#	75455
#	91100
#	107142
#	125547
#	137750
#	148855
#	163895
#	181065
#	199902
#	217415
#
# Disc length: 3687 seconds
#
# Revision: 4
# Processed by: cddbd v1.5.2PL0 Copyright (c) Steve Scherf et al.
# Submitted via: audiograbber 1.83.01
#
DISCID=e00e6510
DTITLE=Various Artist - Country pisnicky z radia 2
DYEAR=1997
DGENRE=Country
TTITLE0=Rangers - Zuzana
TTITLE1=Mirek Hoffmann - A slunce pali
TTITLE2=Stare sedlo - Proklety buick
TTITLE3=Kocabka - Kocabka
TTITLE4=KTO - Loudavej vlak
TTITLE5=Fragment - Brokatove leto
TTITLE6=Jindra Stahlavsky - Plava Jane
TTITLE7=Dokloubouku - Ve skalach
TTITLE8=Netto - Zas bude fajn
TTITLE9=Mustangove - Reka huci
TTITLE10=Jan Nedved a Rangers - Zlomena ruze
TTITLE11=Delova koule - Rychlejsi kone
TTITLE12=Michal Tucny - Stastne stare slunce
TTITLE13=country Dedows - Par radku
TTITLE14=Zelenaci - Zlaty klic
TTITLE15=Stare sedlo - smes
EXTD=YEAR: 1997
EXTT0=
EXTT1=
EXTT2=
EXTT3=
EXTT4=
EXTT5=
EXTT6=
EXTT7=
EXTT8=
EXTT9=
EXTT10=
EXTT11=
EXTT12=
EXTT13=
EXTT14=
EXTT15=
PLAYORDER=
